<?xml version="1.0" encoding="UTF-8" standalone="no"?>
<!DOCTYPE svg PUBLIC "-//W3C//DTD SVG 1.1//EN" "http://www.w3.org/Graphics/SVG/1.1/DTD/svg11.dtd">
<svg width="100%" height="100%" viewBox="0 0 64 64" version="1.1" xmlns="http://www.w3.org/2000/svg" xmlns:xlink="http://www.w3.org/1999/xlink" xml:space="preserve" xmlns:serif="http://www.serif.com/" style="fill-rule:evenodd;clip-rule:evenodd;stroke-linecap:round;stroke-linejoin:round;stroke-miterlimit:1.5;">
    <g transform="matrix(0.375729,0,0,0.375729,-103.072,-76.0657)">
        <path d="M411.244,231.947C410.845,232.895 409.154,247.055 374.431,257.689C355.601,263.456 355.765,272.673 353.991,272.971C345.386,274.415 339.423,262.406 330.865,260.707C322.064,258.959 301.185,262.485 301.185,262.485C301.185,262.485 316.184,271.315 320.445,278.494C325.252,286.589 323.031,304.378 330.023,311.059C337.016,317.741 352.431,320.002 362.398,318.583C370.567,317.42 381.072,309.92 390.427,311.059C399.783,312.199 418.531,325.419 418.531,325.419C418.531,325.419 417.944,314.772 420.454,311.278C422.964,307.783 433.591,304.452 433.591,304.452C433.591,304.452 388.697,295.65 384.298,286.232C383.876,285.329 384.811,284.083 387.909,281.708C390.802,279.489 389.595,277.085 389.376,276.46C389.92,276.57 397.093,276.575 398.485,273.609C400.439,269.442 398.204,266.272 398.204,266.272C398.204,266.272 404.451,266.571 406.506,262.557C409.324,257.054 407.028,255.165 407.028,255.165C407.028,255.165 411.6,249.819 412.528,246.798C414.998,238.764 411.677,230.919 411.244,231.947Z" style="fill:none;stroke:black;stroke-width:1px;"/>
    </g>
    <g transform="matrix(0.360623,-0.105467,0.105467,0.360623,-132.89,-56.8353)">
        <path d="M286.867,327.498C289.91,324.823 300.659,316.815 302.491,315.555C303.117,315.125 305.096,311.348 307.683,310.111C310.392,308.817 310.877,310.879 309.822,311.742C308.014,313.221 303.711,315.351 302.491,315.555" style="fill:none;stroke:black;stroke-width:1px;"/>
    </g>
    <g transform="matrix(0.364384,-0.0916322,0.0916322,0.364384,-128.893,-62.2431)">
        <path d="M307.383,312.689C305.579,312.088 291.886,307.141 295.576,314.712C299.265,322.283 302.959,320.213 301.88,322.898C299.136,329.726 289.797,313.083 287.513,320.752C285.871,326.262 291.179,328.275 291.559,330.607C291.744,331.745 288.833,333.58 287.076,334.737" style="fill:none;stroke:black;stroke-width:1px;"/>
    </g>
</svg>
